<svg xmlns="http://www.w3.org/2000/svg" xmlns:xlink="http://www.w3.org/1999/xlink" version="1.1" width="301.0536804199219" height="172.38926696777344" enable-background="new 0 0 306.14 306.14" xml:space="preserve" style=""><rect id="backgroundrect" width="100%" height="100%" x="0" y="0" fill="none" stroke="none" class="" style=""/>


<g class="currentLayer" style=""><title>Layer 1</title><g id="svg_2" class="">
	<g id="svg_3">
		<g id="svg_4">
			<path fill="#FFFFFF" d="M30.58142272758484,150.34832692050935 c-8.011,0 -13.398,-4.42 -13.398,-14.296 v-12.638 c0,-9.393 5.732,-14.158 15.332,-14.158 c2.624,0 4.696,0.3460000000000051 6.699,1.105 v-13.398 h9.461 v40.608 c0,2.9699999999999998 0.9670000000000006,3.5220000000000002 4.144,3.729 v9.047 c-4.9030000000000005,0 -9.53,-0.553 -11.464,-4.9030000000000005 C38.868422727584836,148.13832692050934 36.243422727584836,150.34832692050935 30.58142272758484,150.34832692050935 zM26.64442272758484,124.51932692050934 v9.6 c0,5.87 2.417,7.804 6.146,7.804 c4.834,0 6.422,-3.246 6.422,-8.149000000000001 v-9.323 c0,-5.11 -2.348,-6.768 -6.146,-6.768 C28.992422727584838,117.68232692050933 26.64442272758484,119.40932692050933 26.64442272758484,124.51932692050934 z" id="svg_5"/>
			<path fill="#FFFFFF" d="M55.923422727584835,106.35632692050933 c4.489,-3.384 4.9030000000000005,-6.561 4.9030000000000005,-12.224 h9.737 c0,11.05 -1.8650000000000002,15.677 -10.428,17.749 L55.923422727584835,106.35632692050933 z" id="svg_6"/>
		</g>
		<g id="svg_7">
			<path fill="#FFFFFF" d="M169.08642272758485,95.32432692050935 h9.53 v37.362 c0,10.98 -5.524,15.884 -18.163,15.884 c-12.638,0 -17.749,-4.9030000000000005 -17.749,-15.884 v-37.362 h9.53 v36.879 c0,5.041 1.312,7.942 8.218,7.942 c6.906,0 8.633000000000001,-2.901 8.633000000000001,-7.942 V95.32432692050935 z" id="svg_8"/>
			<path fill="#FFFFFF" d="M195.05042272758485,139.79932692050934 h22.03 v8.701 h-31.562 v-37.431 c0,-11.257 4.904,-15.884 17.749,-15.884 h13.397 v8.425 h-13.397 c-6.906,0 -8.218,2.9 -8.218,7.942 v5.663 h17.955 v8.633000000000001 h-17.955 V139.79932692050934 z" id="svg_9"/>
			<path fill="#FFFFFF" d="M240.76542272758485,148.63932692050935 h-19.199 v-8.702 h17.956 c5.456,0 7.5280000000000005,-2.071 7.5280000000000005,-8.08 c0,-14.088 -25.484,2.21 -25.484,-21.754 c0,-10.083 6.492,-14.917 17.68,-14.917 h13.882 v8.356 c-1.935,0 -10.429,-0.06900000000000114 -12.362,-0.06900000000000114 c-7.39,0 -9.6,1.036 -9.6,6.561 c0,12.915 25.415,-2.693 25.415,21.479 C256.58042272758485,143.80532692050934 251.74542272758484,148.63932692050935 240.76542272758485,148.63932692050935 z" id="svg_10"/>
			<path fill="#FFFFFF" d="M291.3844227275848,103.95732692050933 H280.4034227275848 v44.476 h-9.462 v-44.476 h-11.049 v-8.495 h31.492 V103.95732692050933 z" id="svg_11"/>
		</g>
	</g>
	<g id="svg_12">
		<path fill="#FFFFFF" d="M86.28442272758484,42.21632692050933 h17.887 v14.779 c0,11.672 -5.525,16.575 -18.164,16.575 c-12.638,0 -17.749,-4.9030000000000005 -17.749,-15.885 v-21.616 c0,-11.257 4.9030000000000005,-15.884 17.749,-15.884 c12.846,0 18.164,4.696 18.164,16.506 h-9.531 c0,-5.18 -1.243,-8.08 -8.633000000000001,-8.08 c-6.906,0 -8.218,2.9 -8.218,7.941 v20.649 c0,5.042 1.312,7.942 8.218,7.942 c6.906,0 8.633000000000001,-2.9 8.633000000000001,-8.149000000000001 v-6.146 h-8.356 V42.21632692050933 z" id="svg_13"/>
		<path fill="#FFFFFF" d="M110.38242272758484,57.686326920509345 v-21.616 c0,-11.257 4.9030000000000005,-15.884 17.749,-15.884 c12.845,0 18.163,4.627 18.163,15.884 v21.616 c0,10.981 -5.525,15.885 -18.163,15.885 C115.49242272758484,73.57132692050934 110.38242272758484,68.66832692050934 110.38242272758484,57.686326920509345 zM136.76342272758484,57.20332692050934 v-20.649 c0,-5.041 -1.243,-7.941 -8.632,-7.941 c-6.906,0 -8.219,2.9 -8.219,7.941 v20.649 c0,5.042 1.312,7.942 8.219,7.942 C135.03742272758484,65.14532692050935 136.76342272758484,62.24532692050934 136.76342272758484,57.20332692050934 z" id="svg_14"/>
		<path fill="#FFFFFF" d="M180.26942272758484,20.32532692050934 h9.531 v37.361 c0,10.981 -5.525,15.885 -18.164,15.885 s-17.749,-4.9030000000000005 -17.749,-15.885 V20.32532692050934 h9.53 v36.878 c0,5.042 1.312,7.942 8.219,7.942 s8.633000000000001,-2.9 8.633000000000001,-7.942 V20.32532692050934 zM165.90442272758483,15.490326920509336 l-4.9719999999999995,-1.52 l6.837,-11.188 h8.84 l6.837,11.188 l-5.249,1.52 l-6.008,-7.39 L165.90442272758483,15.490326920509336 z" id="svg_15"/>
		<path fill="#FFFFFF" d="M225.29342272758484,28.957326920509345 h-10.981 v44.476 h-9.461 V28.957326920509345 h-11.05 v-8.494 h31.492 V28.957326920509345 z" id="svg_16"/>
	</g>
	<g id="svg_17">
		<path fill="#FFFFFF" d="M94.50642272758483,77.16732692050934 c-9.895,0 -19.021,3.253 -26.402,8.728 c-0.3830000000000039,-0.4330000000000023 -0.787,-0.8540000000000006 -1.268,-1.232 c-0.3090000000000033,-0.24200000000000021 -0.6430000000000082,-0.4710000000000003 -1.02,-0.6670000000000095 c-0.19300000000000214,-0.09500000000000176 -0.39600000000000446,-0.18100000000000024 -0.6170000000000073,-0.253 c-0.11900000000000129,-0.03300000000000011 -0.22500000000000223,-0.06800000000000113 -0.3590000000000003,-0.09100000000000154 c-0.11300000000000072,-0.01900000000000005 -0.18800000000000044,-0.03700000000000001 -0.3540000000000003,-0.0420000000000006 c-1.52,-0.2460000000000004 -3.072,-0.5640000000000006 -4.537,-0.995 c-0.7360000000000056,-0.21900000000000044 -1.469,-0.4740000000000003 -2.08,-0.796 c-0.3010000000000003,-0.1510000000000004 -0.5640000000000006,-0.3610000000000003 -0.6390000000000082,-0.465 c-0.27,-0.38100000000000367 -0.6070000000000016,-0.7400000000000073 -0.916,-1.027 c-0.31800000000000367,-0.2990000000000003 -0.6410000000000082,-0.5640000000000006 -0.936,-0.8180000000000006 c-0.06800000000000113,-0.059000000000000656 -0.12300000000000012,-0.11100000000000022 -0.18800000000000044,-0.16800000000000248 l1.117,-0.2840000000000003 c0.793,-0.21800000000000044 1.59,-0.37800000000000367 2.463,-0.8760000000000073 c0.21700000000000041,-0.14300000000000004 0.459,-0.3010000000000003 0.6660000000000095,-0.6290000000000073 c0.21900000000000044,-0.3090000000000033 0.26,-0.8540000000000006 0.06600000000000072,-1.211 c-0.21100000000000024,-0.3860000000000041 -0.4860000000000003,-0.546 -0.7090000000000006,-0.6700000000000095 c-0.22900000000000229,-0.12300000000000012 -0.44300000000000367,-0.202 -0.6500000000000082,-0.273 c-0.797,-0.266 -1.6430000000000002,-0.4210000000000003 -2.096,-0.7360000000000056 c-0.04500000000000075,-0.03300000000000011 -0.07200000000000002,-0.06100000000000079 -0.09400000000000173,-0.08400000000000113 c0.008000000000000076,-0.006000000000000123 0.010000000000000139,-0.010000000000000139 0.02000000000000027,-0.016000000000000267 c0.22100000000000194,-0.14800000000000021 0.6110000000000056,-0.273 0.977,-0.37700000000000367 l1.17,-0.3240000000000041 c0.203,-0.06200000000000085 0.406,-0.128 0.6270000000000073,-0.22900000000000229 c0.10700000000000012,-0.04900000000000011 0.22500000000000223,-0.11300000000000072 0.3500000000000003,-0.2090000000000002 c0.06200000000000085,-0.04900000000000011 0.131,-0.11600000000000116 0.19100000000000197,-0.20500000000000004 l0.03900000000000011,-0.06500000000000022 l0.004000000000000063,-0.009000000000000202 l0.008000000000000076,-0.017000000000000317 l0.016000000000000267,-0.04000000000000011 c0.035,-0.08800000000000129 0.05300000000000076,-0.21900000000000044 0.04100000000000011,-0.2890000000000003 c-0.05100000000000064,-0.3070000000000013 -0.2070000000000002,-0.4190000000000003 -0.3050000000000003,-0.516 c-0.10900000000000012,-0.08600000000000123 -0.21300000000000024,-0.15400000000000041 -0.31400000000000367,-0.2070000000000002 c-0.201,-0.11100000000000022 -0.3980000000000048,-0.19400000000000223 -0.5940000000000006,-0.271 c-0.3930000000000041,-0.1520000000000004 -0.781,-0.275 -1.1680000000000001,-0.39500000000000435 l-1.1520000000000001,-0.3490000000000055 c-0.18200000000000024,-0.06000000000000071 -0.3830000000000039,-0.126 -0.502,-0.19400000000000223 c-0.16200000000000217,-0.1 -0.31600000000000367,-0.21300000000000024 -0.465,-0.3320000000000043 c-0.5860000000000006,-0.4800000000000003 -1.09,-1.111 -1.199,-1.855 c-0.10900000000000012,-0.7460000000000073 0.22500000000000223,-1.5150000000000001 0.7270000000000006,-2.12 c0.49800000000000366,-0.6180000000000073 1.127,-1.1320000000000001 1.783,-1.593 c-0.6880000000000096,0.4140000000000003 -1.355,0.8830000000000076 -1.912,1.482 c-0.555,0.5840000000000006 -0.996,1.385 -0.934,2.266 c0.06800000000000113,0.8770000000000073 0.5940000000000006,1.637 1.215,2.191 c0.15600000000000044,0.14200000000000004 0.32000000000000384,0.275 0.4960000000000028,0.39600000000000446 c0.22100000000000194,0.1450000000000002 0.404,0.2080000000000002 0.5980000000000006,0.2910000000000003 l1.131,0.43800000000000366 c0.3710000000000028,0.1450000000000002 0.7400000000000073,0.2930000000000003 1.086,0.459 c0.17200000000000001,0.08200000000000106 0.3420000000000048,0.17 0.4840000000000003,0.265 c0.03100000000000042,0.01900000000000005 0.04900000000000011,0.03600000000000001 0.07200000000000002,0.05600000000000011 c-0.01800000000000005,0.008000000000000076 -0.025000000000000324,0.016000000000000267 -0.04500000000000075,0.02200000000000037 c-0.15000000000000024,0.06000000000000071 -0.3320000000000043,0.11000000000000022 -0.518,0.15400000000000041 l-1.17,0.255 c-0.4080000000000003,0.10200000000000002 -0.812,0.1760000000000002 -1.2850000000000001,0.43900000000000367 c-0.11700000000000123,0.06600000000000072 -0.25,0.16400000000000223 -0.37300000000000366,0.31400000000000367 c-0.125,0.15800000000000144 -0.232,0.3830000000000039 -0.19700000000000223,0.6820000000000096 c0.04700000000000011,0.3890000000000041 0.2930000000000003,0.6720000000000095 0.5,0.8440000000000006 c0.8690000000000073,0.6320000000000074 1.6720000000000006,0.7300000000000006 2.369,1.032 c0.23600000000000004,0.07700000000000012 0.4790000000000003,0.22800000000000223 0.5740000000000006,0.3040000000000003 c-0.025000000000000324,0.025000000000000324 -0.10500000000000002,0.08800000000000129 -0.21300000000000024,0.14400000000000004 c-0.549,0.271 -1.354,0.43900000000000367 -2.115,0.6010000000000006 l-1.189,0.2460000000000004 c-0.18800000000000044,0.04400000000000069 -0.4160000000000003,0.08000000000000022 -0.7110000000000006,0.202 c-0.14300000000000004,0.06300000000000022 -0.32200000000000406,0.1460000000000002 -0.521,0.3520000000000003 c-0.22500000000000223,0.19400000000000223 -0.3590000000000003,0.7020000000000006 -0.266,0.983 c0.15800000000000144,0.551 0.3650000000000003,0.6780000000000096 0.523,0.8850000000000078 c0.16800000000000248,0.17900000000000021 0.3240000000000041,0.3240000000000041 0.4770000000000003,0.467 c0.3050000000000003,0.281 0.5940000000000006,0.539 0.8520000000000006,0.803 c0.268,0.271 0.4730000000000003,0.511 0.6600000000000088,0.794 c0.402,0.55 0.8280000000000006,0.795 1.229,1.028 c0.807,0.44100000000000367 1.602,0.7210000000000006 2.398,0.976 c1.6,0.49700000000000366 3.182,0.8500000000000006 4.816,1.1440000000000001 l0.201,0.010000000000000139 c-0.11500000000000113,0.008000000000000076 -0.021000000000000317,0.006000000000000123 0.0020000000000000282,0.021000000000000317 c0.03300000000000011,0.008000000000000076 0.08800000000000129,0.03300000000000011 0.133,0.04700000000000011 c0.10200000000000002,0.04300000000000064 0.2090000000000002,0.1 0.31800000000000367,0.16200000000000217 c0.22300000000000203,0.133 0.44700000000000406,0.3030000000000003 0.6660000000000095,0.4920000000000003 c0.43800000000000366,0.3820000000000038 0.8420000000000006,0.8570000000000016 1.215,1.361 c0.19300000000000214,0.252 0.3570000000000003,0.512 0.529,0.7670000000000082 l0.529,0.8620000000000066 c0.547,0.8630000000000073 1.355,1.359 2.09,1.6820000000000008 c1.502,0.6300000000000073 2.951,0.789 4.363,0.924 c0.7050000000000006,0.06200000000000085 1.4,0.09200000000000166 2.08,0.128 c0.2990000000000003,0.017000000000000317 0.6150000000000073,0.03200000000000011 0.914,0.05400000000000082 c-0.02000000000000027,0.05300000000000076 -0.04300000000000064,0.10400000000000002 -0.06100000000000079,0.15700000000000044 c-0.2400000000000002,0.7110000000000006 -0.455,1.421 -0.539,2.294 c-0.01800000000000005,0.44600000000000395 -0.08800000000000129,0.922 0.23800000000000004,1.6720000000000006 c0.05100000000000064,0.09700000000000202 0.09600000000000186,0.18700000000000044 0.17,0.2870000000000003 l0.11100000000000022,0.1460000000000002 c0.05700000000000011,0.06400000000000022 0.11900000000000129,0.127 0.1840000000000004,0.18600000000000044 l0.125,0.10300000000000002 l0.05100000000000064,0.03900000000000011 l0.11300000000000072,0.07300000000000002 l0.025000000000000324,0.015000000000000211 l0.05300000000000076,0.03000000000000038 l0.1,0.05400000000000082 c0.24200000000000021,0.12300000000000012 0.4220000000000003,0.19100000000000197 0.6000000000000006,0.26 c0.6890000000000097,0.26 1.279,0.463 1.836,0.7190000000000006 c1.117,0.4800000000000003 1.947,1.208 2.027,1.824 c0.04700000000000011,0.2400000000000002 0.03100000000000042,0.253 -0.0020000000000000282,0.4230000000000003 c-0.03700000000000001,0.14400000000000004 -0.127,0.3390000000000048 -0.264,0.5650000000000006 c-0.271,0.46 -0.7110000000000006,1.005 -1.131,1.6800000000000006 c-0.4180000000000003,0.6700000000000095 -0.8220000000000006,1.564 -0.8710000000000073,2.561 c-0.059000000000000656,0.996 0.24400000000000024,1.923 0.6230000000000073,2.672 c0.37300000000000366,0.7310000000000006 0.902,1.423 1.359,1.951 c0.4690000000000003,0.542 0.9550000000000006,1.061 1.449,1.566 c1.98,2.019 4.131,3.7960000000000003 6.236,5.531 c1.031,0.8630000000000073 2.129,1.739 2.934,2.572 c0.09400000000000173,0.1 0.18200000000000024,0.19900000000000245 0.24400000000000024,0.28 c0.04900000000000011,0.06000000000000071 0.023000000000000412,0.03700000000000001 0.03900000000000011,0.04400000000000069 c-0.004000000000000063,-0.01900000000000005 0.03100000000000042,0.05300000000000076 0.04700000000000011,0.08000000000000022 l0.01200000000000014,0.021000000000000317 v0.0010000000000000041 c0.035,0.1 0.09400000000000173,0.2900000000000003 0.10500000000000002,0.54 c0.04300000000000064,0.4910000000000003 -0.006000000000000123,1.107 -0.09600000000000186,1.722 c-0.18000000000000024,1.242 -0.502,2.534 -0.8460000000000006,3.837 l-1.053,3.958 c-0.1460000000000002,0.56 0.06600000000000072,1.179 0.5740000000000006,1.518 c0.268,0.18000000000000024 0.5880000000000006,0.4180000000000003 0.8810000000000073,0.6390000000000082 c0.2970000000000003,0.22900000000000229 0.5880000000000006,0.463 0.8770000000000073,0.7040000000000006 c0.5740000000000006,0.4860000000000003 1.135,0.986 1.6620000000000008,1.517 c0.531,0.527 1.031,1.077 1.496,1.649 c0.455,0.5760000000000006 0.904,1.158 1.266,1.776 c0.2070000000000002,0.31000000000000366 0.3480000000000054,0.6020000000000006 0.502,0.8930000000000082 c0.160000000000002,0.255 0.3070000000000013,0.698000000000011 0.461,1.039 c0.17200000000000001,0.4130000000000003 0.20500000000000004,0.9380000000000006 0.08200000000000106,1.58 c-0.03100000000000042,0.18000000000000024 -0.09200000000000166,0.37200000000000366 -0.14100000000000001,0.56 c-0.4180000000000003,-0.916 -0.8790000000000073,-1.8130000000000002 -1.412,-2.6740000000000004 c-0.3090000000000033,-0.517 -0.6600000000000088,-1.009 -1.014,-1.5 c-0.1760000000000002,-0.2460000000000004 -0.37700000000000367,-0.4760000000000003 -0.562,-0.7140000000000006 c-0.18900000000000144,-0.23700000000000004 -0.38100000000000367,-0.4730000000000003 -0.5940000000000006,-0.6910000000000099 l-0.6230000000000073,-0.6670000000000095 l-0.6740000000000095,-0.6210000000000073 c-0.43600000000000366,-0.4290000000000003 -0.9530000000000006,-0.771 -1.4260000000000002,-1.157 c-0.133,-0.10600000000000002 -0.2950000000000003,-0.18800000000000044 -0.4730000000000003,-0.22800000000000223 c-0.6090000000000036,-0.132 -1.209,0.255 -1.342,0.8630000000000073 l-0.010000000000000139,0.04900000000000011 c-0.529,2.443 -1.146,4.902 -1.814,7.324 c-0.3590000000000003,1.204 -0.6930000000000104,2.419 -1.1,3.6020000000000003 c-0.37300000000000366,1.201 -0.8220000000000006,2.356 -1.252,3.526 l-0.016000000000000267,0.04000000000000011 c-0.06800000000000113,0.18600000000000044 -0.07800000000000012,0.3940000000000042 -0.014000000000000143,0.5980000000000006 c0.1520000000000004,0.4880000000000003 0.6740000000000095,0.7610000000000079 1.1640000000000001,0.6070000000000016 c0.402,-0.127 1.018,-0.15900000000000195 1.443,-0.021000000000000317 c0.15600000000000044,0.0420000000000006 0.2970000000000003,0.11300000000000072 0.4300000000000003,0.19600000000000223 c-0.797,0.12000000000000002 -1.5230000000000001,0.527 -2.037,1.03 c-0.5680000000000006,0.556 -1.002,1.178 -1.322,1.854 c-0.3090000000000033,0.6740000000000095 -0.543,1.3050000000000002 -0.775,1.953 c-0.465,1.282 -0.8890000000000082,2.597 -1.283,3.89 c-0.797,2.5700000000000003 -1.711,5.11 -2.902,7.521 c-0.6040000000000006,1.2 -1.266,2.373 -2.049,3.464 c-0.3930000000000041,0.545 -0.8240000000000006,1.063 -1.311,1.525 c-0.4820000000000003,0.467 -1.023,0.8820000000000074 -1.6640000000000001,1.123 c0.6520000000000082,-0.18900000000000144 1.244,-0.5710000000000006 1.7680000000000002,-1.007 c0.529,-0.4330000000000023 1.008,-0.927 1.449,-1.449 c0.8890000000000082,-1.044 1.637,-2.198 2.314,-3.386 c0.44100000000000367,-0.778 0.8440000000000006,-1.576 1.232,-2.382 c3.7030000000000003,1.003 7.5920000000000005,1.56 11.613,1.56 c24.52,0 44.395,-19.877 44.395,-44.395 S119.02542272758484,77.16732692050934 94.50642272758483,77.16732692050934 zM58.57642272758484,72.92032692050932 C58.58842272758484,72.93532692050934 58.58642272758484,72.94232692050934 58.57642272758484,72.92032692050932 L58.57642272758484,72.92032692050932 zM90.58842272758484,143.06132692050934 l5.924,-0.21600000000000041 c0.05300000000000076,0.12400000000000012 0.11700000000000123,0.24400000000000024 0.16800000000000248,0.3700000000000018 c0.19900000000000245,0.501 0.3890000000000041,1.005 0.553,1.516 c0.08200000000000106,0.255 0.160000000000002,0.511 0.23,0.7660000000000082 c0.07,0.24900000000000044 0.139,0.525 0.18600000000000044,0.7340000000000036 c0.04500000000000075,0.20400000000000001 0.14800000000000021,0.3850000000000041 0.279,0.543 l-8.482,-0.384000000000004 c0.05100000000000064,-0.14400000000000004 0.10200000000000002,-0.2870000000000003 0.15400000000000041,-0.4300000000000003 C89.96142272758483,145.00132692050934 90.27342272758484,144.03132692050937 90.58842272758484,143.06132692050934 zM93.88142272758483,138.36132692050933 c0.160000000000002,0.21200000000000024 0.3340000000000045,0.4120000000000003 0.4840000000000003,0.6330000000000076 c0.3030000000000003,0.43800000000000366 0.6070000000000016,0.8760000000000073 0.8750000000000073,1.3410000000000002 c0.254,0.4250000000000003 0.4900000000000003,0.8620000000000066 0.7150000000000006,1.306 l-4.873,-0.1780000000000002 c0.4750000000000003,-1.565 0.916,-3.1390000000000002 1.334,-4.722 l0.4280000000000003,0.4150000000000003 l0.527,0.5940000000000006 C93.55542272758484,137.94132692050934 93.71942272758484,138.14932692050934 93.88142272758483,138.36132692050933 zM88.73442272758484,148.20432692050935 l0.06400000000000022,-0.15500000000000044 l18.633,-0.8440000000000006 l-7.635,-0.3460000000000051 c0.18600000000000044,-0.1840000000000004 0.3340000000000045,-0.4080000000000003 0.38100000000000367,-0.6860000000000096 l0.0020000000000000282,-0.011000000000000206 c0.10900000000000012,-0.6400000000000082 0.3260000000000041,-1.323 0.5840000000000006,-2.061 c0.15400000000000041,-0.4490000000000041 0.31400000000000367,-0.928 0.465,-1.4300000000000002 l11.518,-0.4200000000000003 l-11.297,-0.4120000000000003 c0.014000000000000143,-0.06300000000000022 0.035,-0.11600000000000116 0.04700000000000011,-0.18100000000000024 c0.18900000000000144,-0.8980000000000082 0.22900000000000229,-2.025 -0.19700000000000223,-3.086 c-0.059000000000000656,-0.137 -0.10500000000000002,-0.263 -0.15400000000000041,-0.3920000000000041 l15.049,-0.8830000000000076 l-15.949,-0.937 c-0.021000000000000317,-0.035 -0.04100000000000011,-0.07500000000000002 -0.06200000000000085,-0.10900000000000012 c-0.4320000000000013,-0.7520000000000073 -0.936,-1.437 -1.461,-2.1 c-0.3340000000000045,-0.4150000000000003 -0.7010000000000006,-0.792 -1.059,-1.18 l20.787,-0.6280000000000073 l-22.033,-0.6660000000000095 c-0.39500000000000435,-0.3710000000000028 -0.795,-0.7340000000000036 -1.205,-1.086 c-0.31600000000000367,-0.267 -0.6390000000000082,-0.528 -0.9690000000000006,-0.783 c-0.07,-0.05500000000000011 -0.14100000000000001,-0.10600000000000002 -0.21100000000000024,-0.160000000000002 l0.4120000000000003,-1.521 l25.311,-0.7360000000000056 l-24.912,-0.7240000000000006 l0.014000000000000143,-0.05400000000000082 c0.3030000000000003,-1.12 0.5840000000000006,-2.271 0.805,-3.472 l24.594,-0.7040000000000006 l-24.379,-0.699000000000011 c0.05500000000000011,-0.515 0.09000000000000147,-1.046 0.04700000000000011,-1.6400000000000001 c-0.03100000000000042,-0.4300000000000003 -0.11100000000000022,-0.916 -0.3320000000000043,-1.45 l-0.01800000000000005,-0.04900000000000011 l-0.05300000000000076,-0.10300000000000002 l-0.02900000000000033,-0.05700000000000011 c-0.025000000000000324,-0.04600000000000082 -0.025000000000000324,-0.05400000000000082 -0.07800000000000012,-0.14200000000000004 c-0.02000000000000027,-0.03200000000000011 -0.04300000000000064,-0.06600000000000072 -0.06400000000000022,-0.101 l24.646,-0.7120000000000006 l-25.959,-0.7490000000000073 c-0.8460000000000006,-0.798 -1.6800000000000006,-1.453 -2.516,-2.146 c-0.4900000000000003,-0.4 -0.979,-0.799 -1.463,-1.199 l28.893,-0.8590000000000036 l-30.988,-0.923 c-0.8590000000000036,-0.7520000000000073 -1.6990000000000007,-1.517 -2.492,-2.315 c-0.262,-0.265 -0.508,-0.539 -0.7580000000000076,-0.809 l32.297,-0.906 l-33.773,-0.9460000000000006 c-0.03100000000000042,-0.05500000000000011 -0.07,-0.10400000000000002 -0.1,-0.16100000000000209 c-0.4710000000000003,-0.97 -0.463,-1.545 0.127,-2.528 c0.07600000000000012,-0.129 0.16400000000000223,-0.262 0.258,-0.3970000000000046 l30.461,-0.92 l-29.332,-0.8860000000000079 c0.11700000000000123,-0.25 0.22700000000000223,-0.519 0.3030000000000003,-0.8300000000000006 c0.135,-0.4910000000000003 0.11900000000000129,-1.18 0.010000000000000139,-1.604 c-0.06200000000000085,-0.2900000000000003 -0.160000000000002,-0.558 -0.275,-0.812 l24.688,-0.8220000000000006 l-26.01,-0.8650000000000073 c-0.6540000000000082,-0.539 -1.344,-0.8980000000000082 -2.012,-1.192 c-0.6910000000000099,-0.3020000000000003 -1.4,-0.529 -1.99,-0.7410000000000073 c-0.05100000000000064,-0.01800000000000005 -0.09600000000000186,-0.03600000000000001 -0.14300000000000004,-0.05400000000000082 c-0.0020000000000000282,-0.058000000000000614 -0.0020000000000000282,-0.12100000000000002 0.006000000000000123,-0.18700000000000044 c0.021000000000000317,-0.2980000000000003 0.09400000000000173,-0.6440000000000082 0.1840000000000004,-0.998 l22.107,-0.915 l-19.684,-0.8140000000000006 c3.891,-1.6660000000000008 8.174,-2.591 12.674,-2.591 c17.807,0 32.24,14.435 32.24,32.24 c0,17.805 -14.434,32.242 -32.24,32.242 c-2.297,0 -4.529,-0.257 -6.689,-0.7160000000000006 c0.04100000000000011,-0.05400000000000082 0.08400000000000113,-0.101 0.127,-0.1520000000000004 l9.041,-0.776 l-5.336,-0.458 c0.1460000000000002,-0.1460000000000002 0.264,-0.3600000000000003 0.27,-0.4900000000000003 c0.04300000000000064,-0.37800000000000367 -0.02900000000000033,-0.44100000000000367 -0.04900000000000011,-0.544 c-0.127,-0.3300000000000041 -0.16800000000000248,-0.3920000000000041 -0.31600000000000367,-0.6440000000000082 c-0.10700000000000012,-0.15500000000000044 -0.14300000000000004,-0.258 -0.32200000000000406,-0.468 c-0.15000000000000024,-0.19700000000000223 -0.31200000000000366,-0.3630000000000003 -0.4800000000000003,-0.502 c-0.3360000000000048,-0.2890000000000003 -0.7340000000000036,-0.527 -1.154,-0.6650000000000095 C89.30342272758485,148.29232692050934 89.01742272758484,148.23832692050934 88.73442272758484,148.20432692050935 zM94.50642272758483,164.63832692050934 c-3.8200000000000003,0 -7.518,-0.519 -11.043,-1.453 c0.44500000000000384,-0.996 0.8550000000000006,-2.009 1.248,-3.026 c3.135,0.794 6.412,1.233 9.795,1.233 c21.998,0 39.832,-17.832 39.832,-39.832 c0,-21.998 -17.834,-39.831 -39.832,-39.831 c-8.551,0 -16.465,2.701 -22.955,7.288 c-0.258,-0.06800000000000113 -0.508,-0.14300000000000004 -0.7400000000000073,-0.234 c-0.516,-0.201 -0.912,-0.4790000000000003 -1.109,-0.777 l-0.5860000000000006,-0.8550000000000006 c-0.06100000000000079,-0.08000000000000022 -0.12300000000000012,-0.15600000000000044 -0.18200000000000024,-0.23600000000000004 c7.154,-5.291 15.992,-8.434 25.572,-8.434 c23.793,0 43.08,19.287 43.08,43.08 C137.58642272758485,145.35132692050934 118.29942272758484,164.63832692050934 94.50642272758483,164.63832692050934 z" id="svg_18"/>
		<path fill="#FFFFFF" d="M87.49842272758484,122.88132692050937 c-0.08200000000000106,1.2610000000000001 0.3540000000000003,1.5790000000000002 0.8850000000000078,1.843 c0.2460000000000004,0.11700000000000123 0.4080000000000003,0.19500000000000223 0.4860000000000003,0.4690000000000003 c0.10900000000000012,0.406 0.5880000000000006,0.8910000000000082 0.7110000000000006,1.352 c0.3240000000000041,1.271 1.6740000000000008,1.32 1.404,0.06800000000000113 l-0.3480000000000054,-1.84 c0.26,-0.527 0.4960000000000028,-1.447 -0.15000000000000024,-1.81 c-0.18000000000000024,-0.101 -0.3890000000000041,-0.19900000000000245 -0.6050000000000006,-0.2980000000000003 c-0.4320000000000013,-0.203 -0.9690000000000006,-0.4490000000000041 -1.037,-0.6900000000000098 c-0.1,-0.3540000000000003 -0.3550000000000003,-0.7150000000000006 -0.6930000000000104,-0.6810000000000096 C87.76542272758483,121.33732692050933 87.56442272758484,121.82632692050936 87.49842272758484,122.88132692050937 z" id="svg_19"/>
		<path fill="#FFFFFF" d="M88.84942272758484,119.49432692050934 c0.8140000000000006,0.44300000000000367 2.426,1.846 2.414,2.156 c-0.01200000000000014,0.31000000000000366 1.166,-0.6840000000000096 0.5760000000000006,-1.637 c-0.5880000000000006,-0.9530000000000006 -3.219,-2.7030000000000003 -3.641,-2.615 C87.75642272758483,118.21132692050935 88.04142272758484,119.05032692050935 88.84942272758484,119.49432692050934 z" id="svg_20"/>
	</g>
</g></g></svg>