<?xml version="1.0" encoding="utf-8"?>
<!-- Generator: Adobe Illustrator 16.0.4, SVG Export Plug-In . SVG Version: 6.00 Build 0)  -->
<!DOCTYPE svg PUBLIC "-//W3C//DTD SVG 1.1//EN" "http://www.w3.org/Graphics/SVG/1.1/DTD/svg11.dtd">
<svg version="1.1" id="Calque_1" xmlns="http://www.w3.org/2000/svg" xmlns:xlink="http://www.w3.org/1999/xlink" x="0px" y="0px"
	 width="510.24px" height="141.73px" viewBox="0 0 510.24 141.73" enable-background="new 0 0 510.24 141.73" xml:space="preserve">
<g>
	<path fill="#5F666F" d="M279.492,24.517c-9.895,0-19.021,3.253-26.402,8.728c-0.383-0.433-0.787-0.854-1.268-1.233
		c-0.309-0.242-0.643-0.471-1.02-0.667c-0.193-0.094-0.396-0.181-0.617-0.253c-0.119-0.033-0.225-0.068-0.359-0.091
		c-0.113-0.019-0.188-0.037-0.354-0.042c-1.52-0.246-3.072-0.564-4.537-0.995c-0.736-0.219-1.469-0.473-2.08-0.795
		c-0.301-0.152-0.564-0.362-0.639-0.465c-0.27-0.38-0.607-0.74-0.916-1.028c-0.318-0.299-0.641-0.564-0.936-0.818
		c-0.068-0.059-0.123-0.111-0.188-0.168l1.117-0.284c0.793-0.218,1.59-0.377,2.463-0.876c0.217-0.142,0.459-0.3,0.666-0.628
		c0.219-0.31,0.26-0.854,0.066-1.212c-0.211-0.385-0.486-0.545-0.709-0.67c-0.229-0.123-0.443-0.202-0.65-0.272
		c-0.797-0.266-1.643-0.421-2.096-0.737c-0.045-0.033-0.072-0.06-0.094-0.084c0.008-0.005,0.01-0.009,0.02-0.015
		c0.221-0.149,0.611-0.273,0.977-0.378l1.17-0.324c0.203-0.062,0.406-0.128,0.627-0.229c0.107-0.049,0.225-0.113,0.35-0.208
		c0.062-0.049,0.131-0.116,0.191-0.205l0.039-0.066l0.004-0.008l0.008-0.017l0.016-0.04c0.035-0.088,0.053-0.219,0.041-0.289
		c-0.051-0.308-0.207-0.419-0.305-0.516c-0.109-0.086-0.213-0.154-0.314-0.208c-0.201-0.111-0.398-0.194-0.594-0.271
		c-0.393-0.152-0.781-0.275-1.168-0.394l-1.152-0.349c-0.182-0.06-0.383-0.126-0.502-0.194c-0.162-0.1-0.316-0.213-0.465-0.333
		c-0.586-0.48-1.09-1.11-1.199-1.855c-0.109-0.746,0.225-1.514,0.727-2.12c0.498-0.618,1.127-1.132,1.783-1.592
		c-0.688,0.414-1.355,0.883-1.912,1.482c-0.555,0.584-0.996,1.384-0.934,2.265c0.068,0.877,0.594,1.637,1.215,2.192
		c0.156,0.141,0.32,0.275,0.496,0.396c0.221,0.145,0.404,0.208,0.598,0.291l1.131,0.438c0.371,0.145,0.74,0.292,1.086,0.458
		c0.172,0.083,0.342,0.171,0.484,0.265c0.031,0.019,0.049,0.037,0.072,0.056c-0.018,0.008-0.025,0.015-0.045,0.022
		c-0.15,0.06-0.332,0.11-0.518,0.154l-1.17,0.255c-0.408,0.102-0.812,0.175-1.285,0.438c-0.117,0.066-0.25,0.165-0.373,0.315
		c-0.125,0.159-0.232,0.382-0.197,0.681c0.047,0.39,0.293,0.673,0.5,0.845c0.869,0.631,1.672,0.73,2.369,1.032
		c0.236,0.078,0.479,0.228,0.574,0.303c-0.025,0.026-0.105,0.088-0.213,0.144c-0.549,0.271-1.354,0.439-2.115,0.601l-1.189,0.246
		c-0.188,0.044-0.416,0.08-0.711,0.202c-0.143,0.063-0.322,0.145-0.521,0.352c-0.225,0.195-0.359,0.702-0.266,0.984
		c0.158,0.55,0.365,0.677,0.523,0.884c0.168,0.179,0.324,0.325,0.477,0.467c0.305,0.281,0.594,0.54,0.852,0.803
		c0.268,0.272,0.473,0.511,0.66,0.794c0.402,0.55,0.828,0.795,1.229,1.028c0.807,0.442,1.602,0.72,2.398,0.976
		c1.6,0.498,3.182,0.85,4.816,1.143l0.201,0.01c-0.115,0.007-0.021,0.006,0.002,0.022c0.033,0.007,0.088,0.032,0.133,0.047
		c0.102,0.043,0.209,0.1,0.318,0.162c0.223,0.132,0.447,0.302,0.666,0.492c0.438,0.382,0.842,0.857,1.215,1.362
		c0.193,0.251,0.357,0.511,0.529,0.766l0.529,0.862c0.547,0.863,1.355,1.36,2.09,1.682c1.502,0.63,2.951,0.789,4.363,0.924
		c0.705,0.062,1.4,0.092,2.08,0.127c0.299,0.016,0.615,0.032,0.914,0.054c-0.02,0.053-0.043,0.104-0.061,0.157
		c-0.24,0.711-0.455,1.421-0.539,2.293c-0.018,0.447-0.088,0.922,0.238,1.672c0.051,0.097,0.096,0.187,0.17,0.287l0.111,0.146
		c0.057,0.064,0.119,0.127,0.184,0.186l0.125,0.103l0.051,0.039l0.113,0.073l0.025,0.015l0.053,0.03l0.1,0.054
		c0.242,0.122,0.422,0.19,0.6,0.259c0.689,0.26,1.279,0.463,1.836,0.719c1.117,0.481,1.947,1.208,2.027,1.824
		c0.047,0.24,0.031,0.253-0.002,0.423c-0.037,0.144-0.127,0.339-0.264,0.565c-0.271,0.46-0.711,1.005-1.131,1.68
		c-0.418,0.67-0.822,1.564-0.871,2.561c-0.059,0.996,0.244,1.923,0.623,2.672c0.373,0.731,0.902,1.423,1.359,1.951
		c0.469,0.542,0.955,1.061,1.449,1.566c1.98,2.019,4.131,3.796,6.236,5.531c1.031,0.863,2.129,1.739,2.934,2.572
		c0.094,0.1,0.182,0.199,0.244,0.28c0.049,0.06,0.023,0.037,0.039,0.044c-0.004-0.019,0.031,0.053,0.047,0.08l0.012,0.021v0.001
		c0.035,0.1,0.094,0.29,0.105,0.54c0.043,0.491-0.006,1.107-0.096,1.722c-0.18,1.242-0.502,2.534-0.846,3.836l-1.053,3.959
		c-0.146,0.559,0.066,1.178,0.574,1.518c0.268,0.18,0.588,0.418,0.881,0.639c0.297,0.229,0.588,0.463,0.877,0.703
		c0.574,0.486,1.135,0.986,1.662,1.518c0.531,0.527,1.031,1.076,1.496,1.648c0.455,0.576,0.904,1.158,1.266,1.777
		c0.207,0.309,0.348,0.602,0.502,0.893c0.16,0.254,0.307,0.697,0.461,1.039c0.172,0.412,0.205,0.938,0.082,1.58
		c-0.031,0.18-0.092,0.371-0.141,0.559c-0.418-0.916-0.879-1.812-1.412-2.674c-0.309-0.516-0.66-1.008-1.014-1.5
		c-0.176-0.246-0.377-0.475-0.562-0.713c-0.189-0.238-0.381-0.473-0.594-0.691l-0.623-0.668l-0.674-0.621
		c-0.436-0.428-0.953-0.771-1.426-1.156c-0.133-0.107-0.295-0.189-0.473-0.229c-0.609-0.131-1.209,0.256-1.342,0.863l-0.01,0.049
		c-0.529,2.443-1.146,4.902-1.814,7.324c-0.359,1.205-0.693,2.42-1.1,3.602c-0.373,1.201-0.822,2.357-1.252,3.527l-0.016,0.039
		c-0.068,0.186-0.078,0.395-0.014,0.598c0.152,0.488,0.674,0.762,1.164,0.607c0.402-0.127,1.018-0.158,1.443-0.02
		c0.156,0.041,0.297,0.113,0.43,0.195c-0.797,0.121-1.523,0.527-2.037,1.031c-0.568,0.555-1.002,1.178-1.322,1.854
		c-0.309,0.674-0.543,1.305-0.775,1.953c-0.465,1.283-0.889,2.598-1.283,3.891c-0.797,2.57-1.711,5.109-2.902,7.521
		c-0.604,1.199-1.266,2.373-2.049,3.463c-0.393,0.545-0.824,1.064-1.311,1.525c-0.482,0.467-1.023,0.883-1.664,1.123
		c0.652-0.189,1.244-0.57,1.768-1.006c0.529-0.434,1.008-0.928,1.449-1.449c0.889-1.045,1.637-2.199,2.314-3.387
		c0.441-0.777,0.844-1.576,1.232-2.381c3.703,1.002,7.592,1.559,11.613,1.559c24.52,0,44.395-19.877,44.395-44.394
		C323.887,44.393,304.012,24.517,279.492,24.517z M243.562,20.27C243.574,20.286,243.572,20.292,243.562,20.27L243.562,20.27z
		 M275.574,90.412l5.924-0.217c0.053,0.125,0.117,0.244,0.168,0.371c0.199,0.5,0.389,1.004,0.553,1.516
		c0.082,0.254,0.16,0.51,0.23,0.766c0.07,0.248,0.139,0.525,0.186,0.734c0.045,0.203,0.148,0.385,0.279,0.543l-8.482-0.385
		c0.051-0.143,0.102-0.287,0.154-0.43C274.947,92.352,275.26,91.381,275.574,90.412z M278.867,85.711
		c0.16,0.213,0.334,0.412,0.484,0.633c0.303,0.439,0.607,0.877,0.875,1.342c0.254,0.424,0.49,0.861,0.715,1.305l-4.873-0.178
		c0.475-1.564,0.916-3.139,1.334-4.721l0.428,0.414l0.527,0.594C278.541,85.291,278.705,85.5,278.867,85.711z M273.721,95.555
		l0.064-0.156l18.633-0.844l-7.635-0.346c0.186-0.184,0.334-0.408,0.381-0.686l0.002-0.01c0.109-0.641,0.326-1.324,0.584-2.061
		c0.154-0.449,0.314-0.928,0.465-1.43l11.518-0.42l-11.297-0.412c0.014-0.064,0.035-0.117,0.047-0.182
		c0.189-0.898,0.229-2.025-0.197-3.086c-0.059-0.137-0.105-0.262-0.154-0.391l15.049-0.883l-15.949-0.938
		c-0.021-0.035-0.041-0.074-0.062-0.109c-0.432-0.752-0.936-1.436-1.461-2.1c-0.334-0.414-0.701-0.791-1.059-1.18l20.787-0.627
		l-22.033-0.666c-0.395-0.371-0.795-0.734-1.205-1.086c-0.316-0.268-0.639-0.529-0.969-0.783c-0.07-0.055-0.141-0.107-0.211-0.16
		l0.412-1.521l25.311-0.736l-24.912-0.723l0.014-0.055c0.303-1.119,0.584-2.271,0.805-3.471l24.594-0.704l-24.379-0.699
		c0.055-0.515,0.09-1.046,0.047-1.64c-0.031-0.43-0.111-0.916-0.332-1.45l-0.018-0.049l-0.053-0.103l-0.029-0.057
		c-0.025-0.046-0.025-0.054-0.078-0.142c-0.02-0.032-0.043-0.066-0.064-0.101l24.646-0.712l-25.959-0.749
		c-0.846-0.798-1.68-1.453-2.516-2.146c-0.49-0.4-0.979-0.799-1.463-1.199l28.893-0.859l-30.988-0.923
		c-0.859-0.752-1.699-1.517-2.492-2.315c-0.262-0.265-0.508-0.539-0.758-0.809l32.297-0.906l-33.773-0.946
		c-0.031-0.055-0.07-0.104-0.1-0.161c-0.471-0.97-0.463-1.545,0.127-2.528c0.076-0.129,0.164-0.262,0.258-0.397l30.461-0.92
		l-29.332-0.886c0.117-0.25,0.227-0.519,0.303-0.83c0.135-0.491,0.119-1.18,0.01-1.604c-0.062-0.29-0.16-0.558-0.275-0.811
		l24.688-0.822l-26.01-0.866c-0.654-0.538-1.344-0.898-2.012-1.192c-0.691-0.302-1.4-0.529-1.99-0.741
		c-0.051-0.018-0.096-0.036-0.143-0.054c-0.002-0.058-0.002-0.121,0.006-0.187c0.021-0.298,0.094-0.644,0.184-0.999l22.107-0.915
		l-19.684-0.814c3.891-1.666,8.174-2.591,12.674-2.591c17.807,0,32.24,14.435,32.24,32.24c0,17.804-14.434,32.242-32.24,32.242
		c-2.297,0-4.529-0.256-6.689-0.715c0.041-0.055,0.084-0.102,0.127-0.152l9.041-0.777l-5.336-0.457
		c0.146-0.146,0.264-0.361,0.27-0.49c0.043-0.379-0.029-0.441-0.049-0.545c-0.127-0.33-0.168-0.391-0.316-0.643
		c-0.107-0.156-0.143-0.258-0.322-0.469c-0.15-0.197-0.312-0.363-0.48-0.502c-0.336-0.289-0.734-0.527-1.154-0.664
		C274.289,95.643,274.004,95.588,273.721,95.555z M279.492,111.988c-3.82,0-7.518-0.518-11.043-1.453
		c0.445-0.996,0.855-2.008,1.248-3.025c3.135,0.793,6.412,1.232,9.795,1.232c21.998,0,39.832-17.832,39.832-39.832
		c0-21.998-17.834-39.831-39.832-39.831c-8.551,0-16.465,2.701-22.955,7.288c-0.258-0.067-0.508-0.142-0.74-0.234
		c-0.516-0.202-0.912-0.479-1.109-0.777l-0.586-0.856c-0.061-0.08-0.123-0.156-0.182-0.236c7.154-5.291,15.992-8.434,25.572-8.434
		c23.793,0,43.08,19.288,43.08,43.08C322.572,92.701,303.285,111.988,279.492,111.988z"/>
	<path fill="#5F666F" d="M272.484,70.232c-0.082,1.261,0.354,1.579,0.885,1.842c0.246,0.117,0.408,0.195,0.486,0.469
		c0.109,0.406,0.588,0.891,0.711,1.352c0.324,1.271,1.674,1.32,1.404,0.068l-0.348-1.84c0.26-0.527,0.496-1.447-0.15-1.809
		c-0.18-0.101-0.389-0.199-0.605-0.298c-0.432-0.203-0.969-0.449-1.037-0.69c-0.1-0.354-0.355-0.715-0.693-0.681
		C272.752,68.688,272.551,69.176,272.484,70.232z"/>
	<path fill="#5F666F" d="M273.836,66.844c0.814,0.443,2.426,1.846,2.414,2.156c-0.012,0.31,1.166-0.684,0.576-1.637
		c-0.588-0.953-3.219-2.703-3.641-2.615C272.742,65.561,273.027,66.401,273.836,66.844z"/>
</g>
<g>
	<path fill="#5F666F" d="M48.16,68.276h17.888v14.779c0,11.672-5.524,16.574-18.163,16.574s-17.749-4.902-17.749-15.883V62.129
		c0-11.257,4.903-15.884,17.749-15.884s18.163,4.696,18.163,16.505h-9.53c0-5.18-1.244-8.08-8.633-8.08
		c-6.906,0-8.219,2.9-8.219,7.942v20.649c0,5.041,1.312,7.943,8.219,7.943s8.633-2.902,8.633-8.15v-6.146H48.16V68.276z"/>
	<path fill="#5F666F" d="M72.26,83.746V62.129c0-11.257,4.902-15.884,17.748-15.884s18.164,4.627,18.164,15.884v21.617
		c0,10.98-5.525,15.883-18.164,15.883S72.26,94.727,72.26,83.746z M98.641,83.262V62.613c0-5.042-1.243-7.942-8.633-7.942
		c-6.906,0-8.219,2.9-8.219,7.942v20.649c0,5.041,1.312,7.943,8.219,7.943S98.641,88.303,98.641,83.262z"/>
	<path fill="#5F666F" d="M142.146,46.384h9.53v37.362c0,10.98-5.524,15.883-18.163,15.883s-17.749-4.902-17.749-15.883V46.384h9.53
		v36.878c0,5.041,1.312,7.943,8.219,7.943s8.633-2.902,8.633-7.943V46.384z M127.781,41.549l-4.973-1.52l6.838-11.188h8.84
		l6.836,11.188l-5.248,1.52l-6.008-7.39L127.781,41.549z"/>
	<path fill="#5F666F" d="M187.17,55.016h-10.98v44.476h-9.461V55.016h-11.051v-8.495h31.492V55.016z"/>
	<path fill="#5F666F" d="M222.801,46.384c12.846,0,18.164,4.627,18.164,15.884v21.615c0,10.982-5.525,15.746-18.164,15.746h-18.231
		V46.384H222.801z M222.801,90.859c6.906,0,8.633-2.418,8.633-7.459V62.751c0-5.042-1.104-7.666-8.494-7.666h-8.908v35.774H222.801z
		"/>
	<path fill="#5F666F" d="M245.795,55.707c4.49-3.384,4.904-6.561,4.904-12.224h9.736c0,11.05-1.863,15.677-10.428,17.749
		L245.795,55.707z"/>
</g>
<g>
	<path fill="#5F666F" d="M357.349,44.675h9.53v37.362c0,10.98-5.524,15.883-18.163,15.883c-12.638,0-17.749-4.902-17.749-15.883
		V44.675h9.531v36.878c0,5.041,1.312,7.943,8.218,7.943c6.906,0,8.633-2.902,8.633-7.943V44.675z"/>
	<path fill="#5F666F" d="M383.312,89.15h22.03v8.701h-31.562V60.42c0-11.257,4.904-15.884,17.749-15.884h13.397v8.425H391.53
		c-6.906,0-8.218,2.9-8.218,7.942v5.663h17.955v8.632h-17.955V89.15z"/>
	<path fill="#5F666F" d="M429.027,97.99h-19.199v-8.703h17.956c5.456,0,7.528-2.07,7.528-8.08c0-14.087-25.484,2.211-25.484-21.753
		c0-10.083,6.492-14.917,17.68-14.917h13.882v8.356c-1.935,0-10.429-0.069-12.362-0.069c-7.39,0-9.6,1.036-9.6,6.561
		c0,12.914,25.415-2.693,25.415,21.479C444.843,93.156,440.008,97.99,429.027,97.99z"/>
	<path fill="#5F666F" d="M479.646,53.307h-10.981v44.476h-9.462V53.307h-11.049v-8.495h31.492V53.307z"/>
</g>
</svg>
